<?xml version="1.0" encoding="UTF-8"?>
<svg width="246.94mm" height="246.38mm" version="1.1" viewBox="0 0 246.94 246.38" xmlns="http://www.w3.org/2000/svg" xmlns:dc="http://purl.org/dc/elements/1.1/" xmlns:ns="https://creativecommons.org/ns#" xmlns:rdf="http://www.w3.org/1999/02/22-rdf-syntax-ns#" xmlns:xlink="http://www.w3.org/1999/xlink">
 <defs>
  <marker id="marker2027" overflow="visible" orient="auto">
   <path transform="matrix(-.4 0 0 -.4 -4 0)" d="m0 0 5-5-17.5 5 17.5 5z" fill-rule="evenodd" stroke="#000" stroke-width="1pt"/>
  </marker>
  <marker id="marker2027-4" overflow="visible" orient="auto">
   <path transform="matrix(-.4 0 0 -.4 -4 0)" d="m0 0 5-5-17.5 5 17.5 5z" fill-rule="evenodd" stroke="#000" stroke-width="1pt"/>
  </marker>
  <marker id="marker2027-2" overflow="visible" orient="auto">
   <path transform="matrix(-.4 0 0 -.4 -4 0)" d="m0 0 5-5-17.5 5 17.5 5z" fill-rule="evenodd" stroke="#000" stroke-width="1pt"/>
  </marker>
 </defs>
 <metadata>
  <rdf:RDF>
   <ns:Work rdf:about="">
    <dc:format>image/svg+xml</dc:format>
    <dc:type rdf:resource="http://purl.org/dc/dcmitype/StillImage"/>
   </ns:Work>
  </rdf:RDF>
 </metadata>
 <g transform="translate(-79.226 38.744)" fill="#377eb8" fill-opacity=".53333" stroke="#000" stroke-linejoin="bevel" stroke-width=".60299">
  <path d="m171.18 193.37-4.8239 4.8239"/>
  <path d="m171.18 183.72-14.647 14.647"/>
  <path d="m171.18 174.07-24.207 24.207"/>
  <path d="m171.18 164.43-33.855 33.855"/>
  <path d="m161.54 164.43-24.207 24.207"/>
  <path d="m151.98 164.34-14.647 14.647"/>
  <path d="m142.24 164.43-4.8239 4.8239"/>
  <path d="m171.18 178.99-14.647-14.647"/>
  <path d="m171.18 169.34-4.8239-4.8239"/>
  <path d="m171.18 188.63-24.207-24.207"/>
  <path d="m171.18 198.28-33.855-33.855"/>
  <path d="m161.54 198.28-24.207-24.207"/>
  <path d="m151.98 198.37-14.647-14.647"/>
  <path d="m142.24 198.28-4.8239-4.8239"/>
 </g>
 <g transform="translate(47.856 -1.1257)" fill="#377eb8" fill-opacity=".53333" stroke="#000" stroke-linejoin="bevel" stroke-width=".45465">
  <path d="m40.416 10.803v33.867" marker-end="url(#marker2027-4)"/>
  <path d="m10.329 15.639h33.867" marker-end="url(#marker2027-4)"/>
  <path d="m44.195 23.904h-33.867" marker-end="url(#marker2027-4)"/>
  <path d="m23.629 10.803v33.867" marker-end="url(#marker2027-4)"/>
  <path d="m15.165 10.803v33.852" marker-end="url(#marker2027-4)"/>
  <path d="m10.329 32.572h33.867" marker-end="url(#marker2027-4)"/>
  <path d="m44.195 40.988h-33.867" marker-end="url(#marker2027-4)"/>
  <path d="m32.091 10.803v33.867" marker-end="url(#marker2027-4)"/>
 </g>
 <g transform="translate(-.50421 -1.1257)" fill="#377eb8" fill-opacity=".53333" stroke="#000" stroke-linejoin="bevel" stroke-width=".45465">
  <path d="m40.416 10.803v33.867" marker-end="url(#marker2027)"/>
  <path d="m10.329 15.639h33.867" marker-end="url(#marker2027)"/>
  <path d="m44.195 23.904h-33.867" marker-end="url(#marker2027)"/>
  <path d="m23.629 10.803v33.867" marker-end="url(#marker2027)"/>
  <path d="m15.165 10.803 2e-6 33.852" marker-end="url(#marker2027)"/>
  <path d="m10.329 32.572h33.867" marker-end="url(#marker2027)"/>
  <path d="m44.195 40.988h-33.867" marker-end="url(#marker2027)"/>
  <path d="m32.091 10.803v33.867" marker-end="url(#marker2027)"/>
 </g>
 <g transform="translate(-127.5 -106.39)" fill="#377eb8" fill-opacity=".53333" stroke="#000" stroke-linejoin="bevel" stroke-width=".60299">
  <path d="m171.18 193.37-4.8239 4.8239"/>
  <path d="m171.18 183.72-14.647 14.647"/>
  <path d="m171.18 174.07-24.207 24.207"/>
  <path d="m171.18 164.43-33.855 33.855"/>
  <path d="m161.54 164.43-24.207 24.207"/>
  <path d="m151.98 164.34-14.647 14.647"/>
  <path d="m142.24 164.43-4.8239 4.8239"/>
  <path d="m171.18 178.99-14.647-14.647"/>
  <path d="m171.18 169.34-4.8239-4.8239"/>
  <path d="m171.18 188.63-24.207-24.207"/>
  <path d="m171.18 198.28-33.855-33.855"/>
  <path d="m161.54 198.28-24.207-24.207"/>
  <path d="m151.98 198.37-14.647-14.647"/>
  <path d="m142.24 198.28-4.8239-4.8239"/>
 </g>
 <g transform="translate(-3.5587 41.017)" fill="#f00">
  <a transform="matrix(2 0 0 2 70.185 -147.56)" fill="#f00" xlink:href="https://d-bl.github.io/GroundForge/pattern.html?patchWidth=7&amp;patchHeight=8&amp;footside=----,---b,&amp;tile=5-5,-5-,5-5&amp;headside=-,c,&amp;shiftColsSW=-4&amp;shiftRowsSW=2&amp;shiftColsSE=3&amp;shiftRowsSE=1&amp;e1=crcc&amp;e1=crcl&amp;g1=clcc&amp;e3=ctc&amp;g3=ccrc&amp;f2=cclc&amp;f3=crcl">
   <text x="24.575508" y="153.90761" fill="#ff0000" fill-opacity=".99854" font-size="2.1167px" stroke-linecap="square" stroke-width=".565" xml:space="preserve"><tspan x="24.575508" y="153.90761" fill="#ff0000" stroke-width=".565">b</tspan></text>
  </a>
 </g>
 <text x="29.470959" y="103.99185" fill="#000000" font-family="Calibri" font-size="5.2917px" stop-color="#000000" stroke-width=".26458" style="-inkscape-stroke:none;line-height:1.204;text-decoration-color:#000000" xml:space="preserve"><tspan x="29.470959" y="103.99185" font-size="5.2917px" stroke-width=".26458"/></text>
 <g transform="translate(-1.9021 -107.85)">
  <a transform="matrix(2 0 0 2 27.851 -189.89)" xlink:href="https://d-bl.github.io/GroundForge/pattern.html?patchWidth=6&amp;patchHeight=6&amp;footside=----,---b,&amp;tile=11,88&amp;headside=c,-,&amp;shiftColsSW=-1&amp;shiftRowsSW=2&amp;shiftColsSE=1&amp;shiftRowsSE=2&amp;k1=ctctt&amp;f1=crcl&amp;e1=ct&amp;f2=ctc&amp;e2=crcl&amp;d2=ctctt">
   <text x="20.995592" y="153.75635" fill="#000000" fill-opacity=".99854" font-size="2.6458px" stroke-linecap="square" stroke-width=".565" xml:space="preserve"><tspan x="20.995592" y="153.75635" fill="#000000" font-family="Calibri" font-size="2.6458px" stroke-width=".565">b</tspan></text>
  </a>
 </g>
 <g transform="translate(-3.0158 -108.35)">
  <a transform="matrix(2 0 0 2 70.185 -189.89)" xlink:href="https://d-bl.github.io/GroundForge/pattern.html?patchWidth=6&amp;patchHeight=6&amp;footside=----,---b,&amp;tile=11,88&amp;headside=c,-,&amp;shiftColsSW=0&amp;shiftRowsSW=2&amp;shiftColsSE=2&amp;shiftRowsSE=2&amp;k1=ctctt&amp;f1=crcl&amp;e1=ct&amp;f2=ctc&amp;e2=clcr&amp;d2=ctctt">
   <text x="24.575508" y="153.90761" fill="#000000" fill-opacity=".99854" font-size="2.1167px" stroke-linecap="square" stroke-width=".565" xml:space="preserve"><tspan x="24.575508" y="153.90761" fill="#000000" stroke-width=".565">b</tspan></text>
  </a>
 </g>
 <a transform="matrix(3.1104 0 0 3.1104 78.829 -402.96)" xlink:href="https://d-bl.github.io/GroundForge/tesselace-to-gf">
  <text x="24.575508" y="153.90761" fill="#000000" fill-opacity=".99854" font-size="2.1167px" stroke-linecap="square" stroke-width=".565" xml:space="preserve"><tspan x="24.575508" y="153.90761" fill="#000000" stroke-width=".565">Tesselace</tspan></text>
 </a>
 <a transform="matrix(3.1104 0 0 3.1104 85.042 -394)" xlink:href="https://d-bl.github.io/GroundForge/MAE-gf">
  <text x="24.575508" y="153.90761" fill="#000000" fill-opacity=".99854" font-size="2.1167px" stroke-linecap="square" stroke-width=".565" xml:space="preserve"><tspan x="24.575508" y="153.90761" fill="#000000" stroke-width=".565">MAE</tspan></text>
 </a>
 <a transform="matrix(3.1104 0 0 3.1104 42.383 -416.16)" xlink:href="">
  <text x="35.903328" y="154.96596" fill="#000000" fill-opacity=".99854" font-size="2.1167px" stroke-linecap="square" stroke-width=".565" xml:space="preserve"><tspan x="35.903328" y="154.96596" fill="#000000" font-style="italic" stroke-width=".565">See also:</tspan></text>
 </a>
 <g transform="translate(-15.408 -104.87)">
  <a transform="matrix(2 0 0 2 -14.482 -147.56)" xlink:href="https://d-bl.github.io/GroundForge/pattern.html?patchWidth=7&amp;patchHeight=8&amp;footside=----,---b&amp;tile=5-&amp;headside=-,c&amp;shiftColsSW=-1&amp;shiftRowsSW=1&amp;shiftColsSE=1&amp;shiftRowsSE=1&amp;e1=ctc&amp;l2=ctctt&amp;d2=ctctt">
   <text x="24.575508" y="153.90761" fill="#000000" fill-opacity=".99854" font-size="2.1167px" stroke-linecap="square" stroke-width=".565" xml:space="preserve"><tspan x="24.575508" y="153.90761" fill="#000000" stroke-width=".565">b</tspan></text>
  </a>
 </g>
 <a transform="matrix(3.1104 0 0 3.1104 84.37 -386.57)" xlink:href="https://d-bl.github.io/GroundForge/pattern">
  <text x="24.575508" y="153.90761" fill="#000000" fill-opacity=".99854" font-size="2.1167px" stroke-linecap="square" stroke-width=".565" xml:space="preserve"><tspan x="24.575508" y="153.90761" fill="#000000" stroke-width=".565">D.I.Y.</tspan></text>
 </a>
 <g transform="translate(-45.873 40.522)" fill="#f00">
  <a transform="matrix(2 0 0 2 23.353 -189.4)" fill="#f00" xlink:href="https://d-bl.github.io/GroundForge/pattern.html?patchWidth=7&amp;patchHeight=8&amp;footside=---b,----&amp;tile=-5-,5-5,-5-&amp;headside=c,-&amp;shiftColsSW=-2&amp;shiftRowsSW=2&amp;shiftColsSE=2&amp;shiftRowsSE=2&amp;l1=ctctt&amp;f1=ct&amp;d1=ctctt&amp;g2=crc&amp;e2=clc&amp;f3=cctc">
   <text x="21.097168" y="174.83191" fill="#ff0000" fill-opacity=".99854" font-size="2.1167px" stroke-linecap="square" stroke-width=".565" xml:space="preserve"><tspan x="21.097168" y="174.83191" fill="#ff0000" stroke-width=".565">b</tspan></text>
  </a>
 </g>
 <a transform="matrix(2 0 0 2 -25.163 -37.818)" xlink:href="https://d-bl.github.io/GroundForge/pattern.html?patchWidth=7&amp;patchHeight=8&amp;footside=---b,----&amp;tile=-5-,5-5,-5-&amp;headside=c,-&amp;shiftColsSW=-2&amp;shiftRowsSW=2&amp;shiftColsSE=1&amp;shiftRowsSE=3&amp;l1=ctctt&amp;f1=ct&amp;d1=ctctt&amp;g2=crc&amp;e2=clc&amp;f3=cctc"/>
 <text x="26.750431" y="270.82098" fill="#000000" font-family="Calibri" font-size="4px" stop-color="#000000" stroke-width=".26458" style="-inkscape-stroke:none;line-height:1.204;text-decoration-color:#000000" xml:space="preserve"><tspan x="26.750431" y="270.82098" stroke-width=".26458"/></text>
 <text x="126.20098" y="200.96417" fill="#000000" font-family="Calibri" font-size="5.2917px" stop-color="#000000" stroke-width=".26458" style="-inkscape-stroke:none;line-height:1.204;text-decoration-color:#000000" xml:space="preserve"><tspan x="126.20098" y="200.96417" font-size="5.2917px" stroke-width=".26458"/></text>
 <g transform="translate(44.502 -98.743)" fill="#f00">
  <a transform="matrix(2 0 0 2 -26.653 -105.22)" xlink:href="https://d-bl.github.io/GroundForge/pattern.html?patchWidth=7&amp;patchHeight=8&amp;footside=----,---b&amp;tile=5-,-5&amp;headside=-,c&amp;shiftColsSW=-1&amp;shiftRowsSW=1&amp;shiftColsSE=3&amp;shiftRowsSE=1&amp;e1=clcrclc&amp;l2=ctctt&amp;f2=ctc&amp;d2=ctctt">
   <text x="24.575508" y="153.90761" fill="#ff0000" fill-opacity=".99854" font-size="2.1167px" stroke-linecap="square" stroke-width=".565" xml:space="preserve"><tspan x="24.575508" y="153.90761" fill="#ff0000" stroke-width=".565">b</tspan></text>
  </a>
  <a transform="matrix(2 0 0 2 -14.972 -105.22)" xlink:href="https://d-bl.github.io/GroundForge/pattern.html?patchWidth=7&amp;patchHeight=8&amp;footside=---b,----&amp;tile=-5,5-&amp;headside=c,-&amp;shiftColsSW=0&amp;shiftRowsSW=2&amp;shiftColsSE=2&amp;shiftRowsSE=2&amp;l1=ctctt&amp;f1=clcrclc&amp;d1=ctctt&amp;e2=ctc"/>
 </g>
 <g transform="translate(149.2 37.739)">
  <a transform="matrix(2 0 0 2 70.185 -147.56)" xlink:href="https://d-bl.github.io/GroundForge/pattern.html?patchWidth=7&amp;patchHeight=8&amp;footside=----,---b,&amp;tile=5-5,-5-,5-5&amp;headside=-,c,&amp;shiftColsSW=-4&amp;shiftRowsSW=2&amp;shiftColsSE=3&amp;shiftRowsSE=1&amp;e1=crcc&amp;e1=crcl&amp;g1=clcc&amp;e3=ctc&amp;g3=ccrc&amp;f2=cclc&amp;f3=crcl">
   <text x="24.575508" y="153.90761" fill="#000000" fill-opacity=".99854" font-size="2.1167px" stroke-linecap="square" stroke-width=".565" xml:space="preserve"><tspan x="24.575508" y="153.90761" fill="#000000" stroke-width=".565"/></text>
  </a>
 </g>
 <text x="1.3577591" y="458.41034" fill="#000000" font-family="Calibri" font-size="4px" stop-color="#000000" stroke-width=".26458" style="-inkscape-stroke:none;line-height:1.204;text-decoration-color:#000000" xml:space="preserve"><tspan x="1.3577591" y="458.41034" stroke-width=".26458"/></text>
 <g fill="#808080" stroke="#000" stroke-linecap="square" stroke-linejoin="round" stroke-width="1.0583">
  <path d="m58.268 29.33h4.1498c1.1347 0 2.0482 1.0733 2.0482 2.4065v7.8869c0 1.3332-0.91348 2.4065-2.0482 2.4065h-4.6266" opacity=".25"/>
  <path d="m90.678 29.33h-4.1498c-1.1347 0-2.0482 1.0733-2.0482 2.4065v7.8869c0 1.3332 0.91348 2.4065 2.0482 2.4065h4.6266" opacity=".25"/>
  <rect x="11.848" y="12.211" width="5.6242" height="11.974" rx="2.0482" ry="2.269" opacity=".25"/>
  <rect x="125.59" y="12.396" width="12.7" height="12.7" rx="2.1723" ry="2.4065" opacity=".25"/>
  <rect x="20.211" y="12.211" width="5.6242" height="11.974" rx="2.0482" ry="2.269" opacity=".25"/>
  <rect x="28.774" y="12.211" width="5.6242" height="11.974" rx="2.0482" ry="2.269" opacity=".25"/>
  <rect x="37.099" y="12.468" width="5.6242" height="11.974" rx="2.0482" ry="2.269" opacity=".25"/>
  <rect x="11.848" y="29.137" width="5.6242" height="11.974" rx="2.0482" ry="2.269" opacity=".25"/>
  <rect x="20.312" y="29.472" width="5.6242" height="11.974" rx="2.0482" ry="2.269" opacity=".25"/>
  <rect x="28.774" y="29.137" width="5.6242" height="11.974" rx="2.0482" ry="2.269" opacity=".25"/>
  <rect x="37.099" y="29.401" width="5.6242" height="11.974" rx="2.0482" ry="2.269" opacity=".25"/>
  <rect x="10.136" y="58.349" width="4.2129" height="4.2129" rx="2.1064" ry="2.1064" opacity=".25"/>
  <rect x="19.808" y="58.349" width="4.2129" height="4.2129" rx="2.1064" ry="2.1064" opacity=".25"/>
  <rect x="29.48" y="58.349" width="4.2129" height="4.2129" rx="2.1064" ry="2.1064" opacity=".25"/>
  <rect x="39.152" y="58.349" width="4.2129" height="4.2129" rx="2.1064" ry="2.1064" opacity=".25"/>
  <rect x="14.972" y="63.185" width="4.2129" height="4.2129" rx="2.1064" ry="2.1064" opacity=".25"/>
  <rect x="24.644" y="63.185" width="4.2129" height="4.2129" rx="2.1064" ry="2.1064" opacity=".25"/>
  <rect x="34.249" y="63.166" width="4.2129" height="4.2129" rx="2.1064" ry="2.1064" opacity=".25"/>
  <rect x="10.136" y="68.021" width="4.2129" height="4.2129" rx="2.1064" ry="2.1064" opacity=".25"/>
  <rect x="19.808" y="68.021" width="4.2129" height="4.2129" rx="2.1064" ry="2.1064" opacity=".25"/>
  <rect x="29.48" y="68.021" width="4.2129" height="4.2129" rx="2.1064" ry="2.1064" opacity=".25"/>
  <rect x="39.152" y="68.021" width="4.2129" height="4.2129" rx="2.1064" ry="2.1064" opacity=".25"/>
  <rect x="14.972" y="72.857" width="4.2129" height="4.2129" rx="2.1064" ry="2.1064" opacity=".25"/>
  <rect x="24.644" y="72.857" width="4.2129" height="4.2129" rx="2.1064" ry="2.1064" opacity=".25"/>
  <rect x="34.249" y="72.838" width="4.2129" height="4.2129" rx="2.1064" ry="2.1064" opacity=".25"/>
  <rect x="10.15" y="77.682" width="4.2129" height="4.2129" rx="2.1064" ry="2.1064" opacity=".25"/>
  <rect x="19.822" y="77.682" width="4.2129" height="4.2129" rx="2.1064" ry="2.1064" opacity=".25"/>
  <rect x="29.494" y="77.682" width="4.2129" height="4.2129" rx="2.1064" ry="2.1064" opacity=".25"/>
  <rect x="39.166" y="77.682" width="4.2129" height="4.2129" rx="2.1064" ry="2.1064" opacity=".25"/>
  <rect x="14.986" y="82.518" width="4.2129" height="4.2129" rx="2.1064" ry="2.1064" opacity=".25"/>
  <rect x="24.658" y="82.518" width="4.2129" height="4.2129" rx="2.1064" ry="2.1064" opacity=".25"/>
  <rect x="34.263" y="82.5" width="4.2129" height="4.2129" rx="2.1064" ry="2.1064" opacity=".25"/>
  <path d="m60.889 139.98 0.98547-0.98547c0.87943-0.87943 1.0188-2.1562 0.31264-2.8624l-0.41083-0.41134c-0.70621-0.70621-1.9829-0.56679-2.8624 0.31264l-0.98547 0.98547" opacity=".25" stop-color="#000000" style="-inkscape-stroke:none;font-variation-settings:normal"/>
  <rect transform="rotate(45)" x="192.52" y="93.25" width="11.857" height="11.857" rx="2.0959" ry="2.3219" opacity=".25"/>
  <rect transform="rotate(45)" x="206.57" y="86.305" width="11.857" height="11.857" rx="2.0959" ry="2.3219" opacity=".25"/>
  <rect transform="matrix(-.70711 .70711 .70711 .70711 0 0)" x="24.95" y="124.55" width="11.465" height="4.1871" rx="2.245" ry="1.8028" opacity=".25"/>
  <rect transform="matrix(-.70711 .70711 .70711 .70711 0 0)" x="18.111" y="131.39" width="11.465" height="4.1871" rx="2.245" ry="1.8028" opacity=".25"/>
  <rect transform="matrix(-.70711 .70711 .70711 .70711 0 0)" x="11.272" y="138.23" width="11.465" height="4.1871" rx="2.245" ry="1.8028" opacity=".25"/>
  <rect transform="matrix(-.70711 .70711 .70711 .70711 0 0)" x="24.95" y="138.23" width="11.465" height="4.1871" rx="2.245" ry="1.8028" opacity=".25"/>
  <rect transform="matrix(-.70711 .70711 .70711 .70711 0 0)" x="18.111" y="145.07" width="11.465" height="4.1871" rx="2.245" ry="1.8028" opacity=".25"/>
  <rect transform="matrix(-.70711 .70711 .70711 .70711 0 0)" x="38.628" y="138.23" width="11.465" height="4.1871" rx="2.245" ry="1.8028" opacity=".25"/>
  <rect transform="matrix(-.70711 .70711 .70711 .70711 0 0)" x="31.789" y="145.07" width="11.465" height="4.1871" rx="2.245" ry="1.8028" opacity=".25"/>
  <rect transform="matrix(-.70711 .70711 .70711 .70711 0 0)" x="24.95" y="151.91" width="11.465" height="4.1871" rx="2.245" ry="1.8028" opacity=".25"/>
  <rect transform="matrix(-.70711 .70711 .70711 .70711 0 0)" x="31.789" y="131.39" width="11.465" height="4.1871" rx="2.245" ry="1.8028" opacity=".25"/>
  <g>
   <path d="m80.537 140.6 1.0645-1.0645c0.49468-0.49468 0.75513-1.115 0.76274-1.6888 6e-3 -0.44628-0.14114-0.86461-0.4501-1.1736l-0.41134-0.41083c-0.70621-0.70621-1.9829-0.56679-2.8624 0.31264l-4.0251 4.0251" opacity=".25" stop-color="#000000" style="-inkscape-stroke:none;font-variation-settings:normal"/>
   <path d="m89.618 140.26 1.0645-1.0645c0.49468-0.49468 0.75513-1.115 0.76274-1.6888 6e-3 -0.44628-0.14114-0.86461-0.4501-1.1736l-0.41134-0.41083c-0.70621-0.70621-1.9829-0.56679-2.8624 0.31264l-4.0251 4.0251" opacity=".25" stop-color="#000000" style="-inkscape-stroke:none;font-variation-settings:normal"/>
   <path d="m70.865 140.06 1.0645-1.0645c0.49468-0.49468 0.75513-1.115 0.76274-1.6888 6e-3 -0.44628-0.14114-0.86461-0.4501-1.1736l-0.41134-0.41083c-0.70621-0.70621-1.9829-0.56679-2.8624 0.31264l-4.0251 4.0251" opacity=".25" stop-color="#000000" style="-inkscape-stroke:none;font-variation-settings:normal"/>
   <path d="m57.849 127.58 1.0645-1.0645c0.49468-0.49468 1.115-0.75513 1.6888-0.76274 0.44628-6e-3 0.86461 0.14114 1.1736 0.4501l0.41083 0.41134c0.70621 0.70621 0.56679 1.9829-0.31264 2.8624l-4.0251 4.0251" opacity=".25" stop-color="#000000" style="-inkscape-stroke:none;font-variation-settings:normal"/>
   <path d="m57.849 117.91 1.0645-1.0645c0.49468-0.49468 1.115-0.75513 1.6888-0.76274 0.44628-6e-3 0.86461 0.14114 1.1736 0.4501l0.41083 0.41134c0.70621 0.70621 0.56679 1.9829-0.31264 2.8624l-4.0251 4.0251" opacity=".25" stop-color="#000000" style="-inkscape-stroke:none;font-variation-settings:normal"/>
   <path d="m58.029 108.37 1.0645-1.0645c0.49468-0.49468 1.115-0.75512 1.6888-0.76273 0.44628-6e-3 0.86461 0.14114 1.1736 0.45009l0.41083 0.41134c0.70621 0.70621 0.56679 1.9829-0.31264 2.8624l-4.0251 4.0251" opacity=".25" stop-color="#000000" style="-inkscape-stroke:none;font-variation-settings:normal"/>
   <rect transform="rotate(90)" x="109.54" y="-18.78" width="17.892" height="3.4027" rx="2.245" ry="1.7013" opacity=".25" stop-color="#000000" style="-inkscape-stroke:none;font-variation-settings:normal"/>
   <rect transform="rotate(90)" x="113.65" y="-23.616" width="17.892" height="3.4027" rx="2.245" ry="1.7013" opacity=".25" stop-color="#000000" style="-inkscape-stroke:none;font-variation-settings:normal"/>
   <rect transform="rotate(90)" x="119.21" y="-28.452" width="17.892" height="3.4027" rx="2.245" ry="1.7013" opacity=".25" stop-color="#000000" style="-inkscape-stroke:none;font-variation-settings:normal"/>
  </g>
 </g>
 <g transform="translate(-127.59 -58.024)" fill="#377eb8" fill-opacity=".53333" stroke="#000" stroke-linejoin="bevel" stroke-width=".60299">
  <path d="m171.18 193.37-4.8239 4.8239"/>
  <path d="m171.18 183.72-14.647 14.647"/>
  <path d="m171.18 174.07-24.207 24.207"/>
  <path d="m171.18 164.43-33.855 33.855"/>
  <path d="m161.54 164.43-24.207 24.207"/>
  <path d="m151.98 164.34-14.647 14.647"/>
  <path d="m142.24 164.43-4.8239 4.8239"/>
  <path d="m171.18 178.99-14.647-14.647"/>
  <path d="m171.18 169.34-4.8239-4.8239"/>
  <path d="m171.18 188.63-24.207-24.207"/>
  <path d="m171.18 198.28-33.855-33.855"/>
  <path d="m161.54 198.28-24.207-24.207"/>
  <path d="m151.98 198.37-14.647-14.647"/>
  <path d="m142.24 198.28-4.8239-4.8239"/>
 </g>
 <g transform="translate(-79.226 -58.024)" fill="#377eb8" fill-opacity=".53333" stroke="#000" stroke-linejoin="bevel" stroke-width=".60299">
  <path d="m171.18 193.37-4.8239 4.8239"/>
  <path d="m171.18 183.72-14.647 14.647"/>
  <path d="m171.18 174.07-24.207 24.207"/>
  <path d="m171.18 164.43-33.855 33.855"/>
  <path d="m161.54 164.43-24.207 24.207"/>
  <path d="m151.98 164.34-14.647 14.647"/>
  <path d="m142.24 164.43-4.8239 4.8239"/>
  <path d="m171.18 178.99-14.647-14.647"/>
  <path d="m171.18 169.34-4.8239-4.8239"/>
  <path d="m171.18 188.63-24.207-24.207"/>
  <path d="m171.18 198.28-33.855-33.855"/>
  <path d="m161.54 198.28-24.207-24.207"/>
  <path d="m151.98 198.37-14.647-14.647"/>
  <path d="m142.24 198.28-4.8239-4.8239"/>
 </g>
 <g transform="translate(-127.5 38.738)" fill="#377eb8" fill-opacity=".53333" stroke="#000" stroke-linejoin="bevel" stroke-width=".60299">
  <path d="m171.18 193.37-4.8239 4.8239"/>
  <path d="m171.18 183.72-14.647 14.647"/>
  <path d="m171.18 174.07-24.207 24.207"/>
  <path d="m171.18 164.43-33.855 33.855"/>
  <path d="m161.54 164.43-24.207 24.207"/>
  <path d="m151.98 164.34-14.647 14.647"/>
  <path d="m142.24 164.43-4.8239 4.8239"/>
  <path d="m171.18 178.99-14.647-14.647"/>
  <path d="m171.18 169.34-4.8239-4.8239"/>
  <path d="m171.18 188.63-24.207-24.207"/>
  <path d="m171.18 198.28-33.855-33.855"/>
  <path d="m161.54 198.28-24.207-24.207"/>
  <path d="m151.98 198.37-14.647-14.647"/>
  <path d="m142.24 198.28-4.8239-4.8239"/>
 </g>
 <g transform="translate(-33.284 38.744)" fill="#377eb8" fill-opacity=".53333" stroke="#000" stroke-linejoin="bevel" stroke-width=".60299">
  <path d="m171.18 193.37-4.8239 4.8239"/>
  <path d="m171.18 183.72-14.647 14.647"/>
  <path d="m171.18 174.07-24.207 24.207"/>
  <path d="m171.18 164.43-33.855 33.855"/>
  <path d="m161.54 164.43-24.207 24.207"/>
  <path d="m151.98 164.34-14.647 14.647"/>
  <path d="m142.24 164.43-4.8239 4.8239"/>
  <path d="m171.18 178.99-14.647-14.647"/>
  <path d="m171.18 169.34-4.8239-4.8239"/>
  <path d="m171.18 188.63-24.207-24.207"/>
  <path d="m171.18 198.28-33.855-33.855"/>
  <path d="m161.54 198.28-24.207-24.207"/>
  <path d="m151.98 198.37-14.647-14.647"/>
  <path d="m142.24 198.28-4.8239-4.8239"/>
 </g>
 <g fill="#808080" stroke="#000" stroke-linecap="square" stroke-linejoin="round" stroke-width="1.0583">
  <rect x="125.59" y="29.33" width="12.7" height="12.7" rx="2.1723" ry="2.4065" opacity=".25"/>
  <rect x="108.66" y="12.396" width="12.7" height="12.7" rx="2.1723" ry="2.4065" opacity=".25"/>
  <rect x="108.66" y="29.33" width="12.7" height="12.7" rx="2.1723" ry="2.4065" opacity=".25"/>
  <rect x="60.291" y="12.287" width="12.7" height="12.7" rx="2.1723" ry="2.4065" opacity=".25"/>
  <rect x="77.234" y="12.396" width="12.7" height="12.7" rx="2.1723" ry="2.4065" opacity=".25"/>
  <rect x="68.768" y="29.33" width="12.7" height="12.7" rx="2.1723" ry="2.4065" opacity=".25"/>
  <rect x="105.02" y="204.06" width="12.7" height="12.7" rx="2.1723" ry="2.4065" opacity=".25"/>
  <path d="m104.03 231.2h6.7174c1.2035 0 2.172-1.0734 2.172-2.4066v-7.8869c0-1.3332-0.9685-2.4066-2.172-2.4066h-6.7174" opacity=".25"/>
  <rect x="119.45" y="208.93" width="12.7" height="12.7" rx="2.1723" ry="2.4065" opacity=".25"/>
  <rect x="114.61" y="223.42" width="12.7" height="12.7" rx="2.1723" ry="2.4065" opacity=".25"/>
  <path d="m124.18 203.16v1.8268c0 1.3332 0.96903 2.4066 2.1725 2.4066h8.355c1.2034 0 2.1725-1.0733 2.1725-2.4066v-1.8268" opacity=".25"/>
  <path d="m137.9 213.52h-1.8268c-1.3332 0-2.4066 0.96902-2.4066 2.1725v8.355c0 1.2034 1.0733 2.1725 2.4066 2.1725h1.8268" opacity=".25"/>
 </g>
 <g transform="translate(93.798 -105.49)" fill="#808080">
  <path d="m43.79 333.3h-6.7174c-1.2035 0-2.172 1.0734-2.172 2.4066v6.3614" opacity=".25" stroke="#000" stroke-linecap="square" stroke-linejoin="round" stroke-width="1.0583"/>
  <path d="m34.9 342.07 9.2804 2.1e-4 -0.39106-8.7681z" opacity=".25" style="font-variation-settings:normal"/>
 </g>
 <g transform="translate(96.216 -1.1257)" fill="#377eb8" fill-opacity=".53333" stroke="#000" stroke-linejoin="bevel" stroke-width=".45465">
  <path d="m40.416 10.803v33.867" marker-end="url(#marker2027-2)"/>
  <path d="m10.329 15.639h33.867" marker-end="url(#marker2027-2)"/>
  <path d="m44.195 23.904h-33.867" marker-end="url(#marker2027-2)"/>
  <path d="m23.629 10.803v33.867" marker-end="url(#marker2027-2)"/>
  <path d="m15.165 10.803-1e-6 33.852" marker-end="url(#marker2027-2)"/>
  <path d="m10.329 32.572h33.867" marker-end="url(#marker2027-2)"/>
  <path d="m44.195 40.988h-33.867" marker-end="url(#marker2027-2)"/>
  <path d="m32.091 10.803v33.867" marker-end="url(#marker2027-2)"/>
 </g>
 <g fill="#808080" stroke="#000" stroke-linecap="square" stroke-linejoin="round" stroke-width="1.0583">
  <rect x="10.218" y="87.374" width="4.2129" height="4.2129" rx="2.1064" ry="2.1064" opacity=".25"/>
  <rect x="19.89" y="87.374" width="4.2129" height="4.2129" rx="2.1064" ry="2.1064" opacity=".25"/>
  <rect x="29.562" y="87.374" width="4.2129" height="4.2129" rx="2.1064" ry="2.1064" opacity=".25"/>
  <rect x="39.234" y="87.374" width="4.2129" height="4.2129" rx="2.1064" ry="2.1064" opacity=".25"/>
  <rect transform="rotate(45)" x="206.2" y="100.09" width="11.857" height="11.857" rx="2.0959" ry="2.3219" opacity=".25"/>
  <rect transform="rotate(45)" x="158.42" y="127.31" width="11.857" height="11.857" rx="2.0959" ry="2.3219" opacity=".25"/>
  <rect transform="rotate(45)" x="172.1" y="127.31" width="11.857" height="11.857" rx="2.0959" ry="2.3219" opacity=".25"/>
  <rect transform="rotate(45)" x="172.1" y="140.99" width="11.857" height="11.857" rx="2.0959" ry="2.3219" opacity=".25"/>
  <path d="m57.938 226.31 0.93586 0.93587c0.82106 0.82105 2.2143 0.7499 3.1238-0.15968l5.1005-5.1005c0.90959-0.9096 0.98125-2.3028 0.1602-3.1238l-5.4203-5.4203c-0.35921-0.35921-0.82791-0.54733-1.3177-0.56947-0.62979-0.0285-1.2944 0.21751-1.8061 0.72915l-0.77618 0.77618" opacity=".25"/>
  <path d="m92.119 235.98-0.93586 0.93587c-0.82106 0.82105-2.2143 0.7499-3.1238-0.15968l-5.1005-5.1005c-0.90959-0.9096-0.98125-2.3028-0.1602-3.1238l5.4203-5.4203c0.35921-0.35921 0.82791-0.54733 1.3177-0.56947 0.62979-0.0285 1.2945 0.21751 1.8061 0.72915l0.77618 0.77618" opacity=".25"/>
  <path d="m43.922 235.96-0.93586 0.93587c-0.82106 0.82105-2.2143 0.7499-3.1238-0.15968l-5.1005-5.1005c-0.90959-0.9096-0.98125-2.3028-0.1602-3.1238l5.4203-5.4203c0.35921-0.35921 0.82791-0.54733 1.3177-0.56947 0.62979-0.0285 1.2945 0.21751 1.8061 0.72915l0.77618 0.77618" opacity=".25"/>
  <path d="m43.841 216.55-0.93586 0.93587c-0.82106 0.82105-2.2143 0.7499-3.1238-0.15968l-5.1005-5.1005c-0.90959-0.9096-0.98125-2.3028-0.1602-3.1238l5.4203-5.4203c0.35921-0.35921 0.82791-0.54733 1.3177-0.56947 0.62979-0.0285 1.2945 0.21751 1.8061 0.72915l0.77618 0.77618" opacity=".25"/>
  <path d="m71.324 237.05 0.93587-0.93586c0.82105-0.82106 0.7499-2.2143-0.15968-3.1238l-5.1005-5.1005c-0.9096-0.9096-2.3028-0.98126-3.1238-0.1602l-5.4203 5.4203c-0.35921 0.35921-0.54733 0.82791-0.56947 1.3177-0.0285 0.6298 0.21751 1.2945 0.72915 1.8061l0.77618 0.77617" opacity=".25"/>
  <path d="m9.7418 226.28 0.93586 0.93587c0.82106 0.82105 2.2143 0.7499 3.1238-0.15968l5.1005-5.1005c0.90959-0.9096 0.98125-2.3028 0.1602-3.1238l-5.4203-5.4203c-0.35921-0.35921-0.82791-0.54733-1.3177-0.56947-0.62979-0.0285-1.2944 0.21751-1.8061 0.72915l-0.77618 0.77618" opacity=".25"/>
  <g>
   <rect transform="rotate(90)" x="124.05" y="-33.288" width="17.892" height="3.4027" rx="2.245" ry="1.7013" opacity=".25" stop-color="#000000" style="-inkscape-stroke:none;font-variation-settings:normal"/>
   <path d="m29.939 106.4c-0.0338 0.17704-0.05374 0.36115-0.05374 0.55241v13.402c0 1.2437 0.75864 2.2453 1.7012 2.2453s1.7012-1.0016 1.7012-2.2453v-13.402c0-0.19124-0.01943-0.37539-0.05323-0.55241" opacity=".25" stop-color="#000000" style="-inkscape-stroke:none;font-variation-settings:normal"/>
   <path d="m10.578 106.4c-0.0338 0.17703-0.05374 0.36115-0.05374 0.55241v13.402c0 1.2437 0.75864 2.2453 1.7012 2.2453s1.7012-1.0016 1.7012-2.2453v-13.402c0-0.19125-0.01943-0.3754-0.05323-0.55241" opacity=".25" stop-color="#000000" style="-inkscape-stroke:none;font-variation-settings:normal"/>
   <rect transform="rotate(90)" x="115.1" y="-42.96" width="17.892" height="3.4027" rx="2.245" ry="1.7013" opacity=".25" stop-color="#000000" style="-inkscape-stroke:none;font-variation-settings:normal"/>
   <rect transform="rotate(90)" x="109.54" y="-38.124" width="17.892" height="3.4027" rx="2.245" ry="1.7013" opacity=".25" stop-color="#000000" style="-inkscape-stroke:none;font-variation-settings:normal"/>
   <path d="m10.595 141.05c-0.0338-0.17703-0.05374-0.36116-0.05374-0.55242v-13.402c0-1.2437 0.75864-2.2453 1.7012-2.2453s1.7012 1.0016 1.7012 2.2453v13.402c0 0.19124-0.01943 0.3754-0.05323 0.55242" opacity=".25" stop-color="#000000" style="-inkscape-stroke:none;font-variation-settings:normal"/>
   <path d="m18.779 140.25v-8.3173c0-1.2437-0.75864-2.2453-1.7012-2.2453s-1.7012 1.0016-1.7012 2.2453v8.3173" opacity=".25" stop-color="#000000" style="-inkscape-stroke:none;font-variation-settings:normal"/>
   <path d="m38.124 141.14v-8.3173c0-1.2437-0.75864-2.2453-1.7012-2.2453s-1.7012 1.0016-1.7012 2.2453v8.3173" opacity=".25" stop-color="#000000" style="-inkscape-stroke:none;font-variation-settings:normal"/>
   <path d="m28.452 105.95v8.3173c0 1.2437-0.75864 2.2453-1.7012 2.2453s-1.7012-1.0016-1.7012-2.2453v-8.3173" opacity=".25" stop-color="#000000" style="-inkscape-stroke:none;font-variation-settings:normal"/>
   <path d="m42.96 140.25v-3.036c0-1.2437-0.75864-2.2453-1.7012-2.2453s-1.7012 1.0016-1.7012 2.2453v3.036" opacity=".25" stop-color="#000000" style="-inkscape-stroke:none;font-variation-settings:normal"/>
   <path d="m23.615 140.35v-3.036c0-1.2437-0.75864-2.2453-1.7012-2.2453s-1.7012 1.0016-1.7012 2.2453v3.036" opacity=".25" stop-color="#000000" style="-inkscape-stroke:none;font-variation-settings:normal"/>
   <path d="m42.96 106.27v3.036c0 1.2437-0.75864 2.2453-1.7012 2.2453s-1.7012-1.0016-1.7012-2.2453v-3.036" opacity=".25" stop-color="#000000" style="-inkscape-stroke:none;font-variation-settings:normal"/>
   <path d="m23.616 106.17v3.036c0 1.2437-0.75864 2.2453-1.7012 2.2453s-1.7012-1.0016-1.7012-2.2453v-3.036" opacity=".25" stop-color="#000000" style="-inkscape-stroke:none;font-variation-settings:normal"/>
  </g>
 </g>
 <text transform="matrix(.26458 0 0 .26458 .53688 6.1283)" fill="#000000" font-family="Calibri" font-size="15.118px" stop-color="#000000" style="-inkscape-stroke:none;line-height:1.204;shape-inside:url(#rect1);text-decoration-color:#000000;white-space:pre" xml:space="preserve"/>
 <g transform="translate(-79.144 -9.6702)" fill="#377eb8" fill-opacity=".53333" stroke="#000" stroke-linejoin="bevel" stroke-width=".60299">
  <path d="m171.18 193.37-4.8239 4.8239"/>
  <path d="m171.18 183.72-14.647 14.647"/>
  <path d="m171.18 174.07-24.207 24.207"/>
  <path d="m171.18 164.43-33.855 33.855"/>
  <path d="m161.54 164.43-24.207 24.207"/>
  <path d="m151.98 164.34-14.647 14.647"/>
  <path d="m142.24 164.43-4.8239 4.8239"/>
  <path d="m171.18 178.99-14.647-14.647"/>
  <path d="m171.18 169.34-4.8239-4.8239"/>
  <path d="m171.18 188.63-24.207-24.207"/>
  <path d="m171.18 198.28-33.855-33.855"/>
  <path d="m161.54 198.28-24.207-24.207"/>
  <path d="m151.98 198.37-14.647-14.647"/>
  <path d="m142.24 198.28-4.8239-4.8239"/>
 </g>
 <g fill="#808080" stroke="#000" stroke-linecap="square" stroke-linejoin="round" stroke-width="1.0583">
  <rect transform="rotate(135)" x="59.028" y="-163.47" width="18.415" height="5.154" rx="2.245" ry="1.5875" opacity=".25"/>
  <path d="m79.096 154.19-5.784 5.7375c-0.88298 0.87588-1.087 2.088-0.46508 2.7099l1.4464 1.4459c0.2332 0.23321 0.54873 0.34985 0.89866 0.35812 0.58321 0.0138 1.2631-0.2716 1.8113-0.82269l8.9176-8.9646" opacity=".25"/>
  <path d="m80.96 189.2 5.784-5.7375c0.88298-0.87588 1.087-2.088 0.46508-2.7099l-1.4464-1.4459c-0.2332-0.23321-0.54873-0.34985-0.89866-0.35812-0.58321-0.0138-1.2631 0.2716-1.8113 0.82269l-8.9176 8.9646" opacity=".25"/>
  <path d="m70.942 189.14 1.7472-1.7472c0.87944-0.87944 1.087-2.088 0.46509-2.7099l-1.4459-1.4459c-0.2332-0.2332-0.54924-0.34984-0.89917-0.35812-0.58322-0.0138-1.2611 0.27357-1.8107 0.82322l-5.4379 5.4379" opacity=".25"/>
  <rect transform="rotate(135)" x="66.162" y="-170.29" width="18.415" height="5.154" rx="2.245" ry="1.5875" opacity=".25"/>
  <rect transform="rotate(135)" x="72.706" y="-177.15" width="18.415" height="5.154" rx="2.245" ry="1.5875" opacity=".25"/>
  <rect transform="rotate(135)" x="52.189" y="-177.15" width="18.415" height="5.154" rx="2.245" ry="1.5875" opacity=".25"/>
  <rect transform="rotate(135)" x="59.08" y="-183.91" width="18.415" height="5.154" rx="2.245" ry="1.5875" opacity=".25"/>
  <g>
   <path d="m92.453 177.98-1.0645 1.0645c-0.49468 0.49468-1.115 0.75514-1.6888 0.76274-0.44628 6e-3 -0.86461-0.14113-1.1736-0.4501l-0.41083-0.41134c-0.70621-0.70621-0.97456-2.439-0.0928-3.3162l4.0246-4.0036" opacity=".25" stop-color="#000000" style="-inkscape-stroke:none;font-variation-settings:normal"/>
   <path d="m92.453 167.45-1.0645 1.0645c-0.49468 0.49468-1.115 0.75514-1.6888 0.76274-0.44628 6e-3 -0.86461-0.14113-1.1736-0.4501l-0.41083-0.41134c-0.70621-0.70621-0.97456-2.439-0.0928-3.3162l4.0246-4.0036" opacity=".25" stop-color="#000000" style="-inkscape-stroke:none;font-variation-settings:normal"/>
   <path d="m92.453 187.1-1.0645 1.0645c-0.49468 0.49468-1.115 0.75514-1.6888 0.76274-0.44628 6e-3 -0.86461-0.14113-1.1736-0.4501l-0.41083-0.41134c-0.70621-0.70621-0.97456-2.439-0.0928-3.3162l4.0246-4.0036" opacity=".25" stop-color="#000000" style="-inkscape-stroke:none;font-variation-settings:normal"/>
   <path d="m59.78 155.24-1.0645 1.0645c-0.49468 0.49468-0.75514 1.115-0.76274 1.6888-6e-3 0.44628 0.14113 0.86461 0.4501 1.1736l0.41134 0.41083c0.70621 0.70621 2.439 0.97456 3.3162 0.0928l4.0036-4.0246" opacity=".25" stop-color="#000000" style="-inkscape-stroke:none;font-variation-settings:normal"/>
   <rect transform="rotate(90)" x="159.59" y="-28.608" width="23.902" height="3.7146" rx="2.245" ry="1.8028" opacity=".25" stop-color="#000000" style="-inkscape-stroke:none;font-variation-settings:normal"/>
   <rect transform="rotate(90)" x="164.57" y="-33.444" width="23.902" height="3.7146" rx="2.245" ry="1.8028" opacity=".25" stop-color="#000000" style="-inkscape-stroke:none;font-variation-settings:normal"/>
   <path d="m43.043 188.61v-12.197c0-1.2437-0.80426-2.2448-1.803-2.2448h-0.10904c-0.99873 0-1.8025 1.0011-1.8025 2.2448v12.197" opacity=".25" stop-color="#000000" style="-inkscape-stroke:none;font-variation-settings:normal"/>
   <path d="m14.1 154.79v12.197c0 1.2437-0.80426 2.2448-1.803 2.2448h-0.10904c-0.99873 0-1.8025-1.0011-1.8025-2.2448v-12.197" opacity=".25" stop-color="#000000" style="-inkscape-stroke:none;font-variation-settings:normal"/>
   <path d="m43.116 154.79v12.197c0 1.2437-0.80426 2.2448-1.803 2.2448h-0.10904c-0.99873 0-1.8025-1.0011-1.8025-2.2448v-12.197" opacity=".25" stop-color="#000000" style="-inkscape-stroke:none;font-variation-settings:normal"/>
   <path d="m18.935 188.61v-7.3939c0-1.2437-0.80426-2.2448-1.803-2.2448h-0.10904c-0.99873 0-1.8025 1.0011-1.8025 2.2448v7.3939" opacity=".25" stop-color="#000000" style="-inkscape-stroke:none;font-variation-settings:normal"/>
   <path d="m14.1 188.58v-12.197c0-1.2437-0.80426-2.2448-1.803-2.2448h-0.10904c-0.99873 0-1.8025 1.0011-1.8025 2.2448v12.197" opacity=".25" stop-color="#000000" style="-inkscape-stroke:none;font-variation-settings:normal"/>
   <path d="m38.131 188.61v-16.933c0-1.2437-0.80374-2.2448-1.8025-2.2448h-0.10904c-0.99873 0-1.803 1.0011-1.803 2.2448v16.933" opacity=".25" stop-color="#000000" style="-inkscape-stroke:none;font-variation-settings:normal"/>
   <path d="m18.936 154.84v16.933c0 1.2437-0.80374 2.2448-1.8025 2.2448h-0.10904c-0.99873 0-1.803-1.0011-1.803-2.2448v-16.933" opacity=".25" stop-color="#000000" style="-inkscape-stroke:none;font-variation-settings:normal"/>
  </g>
 </g>
 <g transform="translate(-127.59 -9.6641)" fill="#377eb8" fill-opacity=".53333" stroke="#000" stroke-linejoin="bevel" stroke-width=".60299">
  <path d="m171.18 193.37-4.8239 4.8239"/>
  <path d="m171.18 183.72-14.647 14.647"/>
  <path d="m171.18 174.07-24.207 24.207"/>
  <path d="m171.18 164.43-33.855 33.855"/>
  <path d="m161.54 164.43-24.207 24.207"/>
  <path d="m151.98 164.34-14.647 14.647"/>
  <path d="m142.24 164.43-4.8239 4.8239"/>
  <path d="m171.18 178.99-14.647-14.647"/>
  <path d="m171.18 169.34-4.8239-4.8239"/>
  <path d="m171.18 188.63-24.207-24.207"/>
  <path d="m171.18 198.28-33.855-33.855"/>
  <path d="m161.54 198.28-24.207-24.207"/>
  <path d="m151.98 198.37-14.647-14.647"/>
  <path d="m142.24 198.28-4.8239-4.8239"/>
 </g>
 <g fill="#808080" stroke="#000" stroke-linecap="square" stroke-linejoin="round" stroke-width="1.0583">
  <rect transform="rotate(90)" x="154.92" y="-23.704" width="23.902" height="3.7146" rx="2.245" ry="1.8028" opacity=".25" stop-color="#000000" style="-inkscape-stroke:none;font-variation-settings:normal"/>
  <path d="m38.225 154.79v7.3939c0 1.2437-0.80426 2.2448-1.803 2.2448h-0.10904c-0.99873 0-1.8025-1.0011-1.8025-2.2448v-7.3939" opacity=".25" stop-color="#000000" style="-inkscape-stroke:none;font-variation-settings:normal"/>
  <path d="m29.729 154.09v3.9341c0 1.2437 0.80374 2.2448 1.8025 2.2448h0.10904c0.99873 0 1.803-1.0011 1.803-2.2448v-3.9341" opacity=".25" stop-color="#000000" style="-inkscape-stroke:none;font-variation-settings:normal"/>
 </g>
 <g transform="translate(-5.2238 -7.7226)" fill="#f00">
  <a transform="matrix(2 0 0 2 -14.482 -147.56)" fill="#f00" xlink:href="https://d-bl.github.io/GroundForge/pattern.html">
   <text x="24.575508" y="153.90761" fill="#ff0000" fill-opacity=".99854" font-size="2.1167px" stroke-linecap="square" stroke-width=".565" xml:space="preserve"><tspan x="24.575508" y="153.90761" fill="#ff0000" stroke-width=".565">H</tspan></text>
  </a>
 </g>
 <g fill="#808080" stroke="#000" stroke-linecap="square" stroke-linejoin="round" stroke-width="1.0583">
  <path d="m20.057 188.75v-3.9341c0-1.2437 0.80374-2.2448 1.8025-2.2448h0.10904c0.99873 0 1.803 1.0011 1.803 2.2448v3.9341" opacity=".25" stop-color="#000000" style="-inkscape-stroke:none;font-variation-settings:normal"/>
  <path d="m179.73 203.13v7.3939c0 1.2437 0.80425 2.2448 1.803 2.2448h0.10903c0.99874 0 1.8025-1.0011 1.8025-2.2448v-7.3939" opacity=".25" stop-color="#000000" style="-inkscape-stroke:none;font-variation-settings:normal"/>
  <path d="m155.55 237.26v-5.2772c0-1.2437 0.80426-2.2448 1.803-2.2448h0.10904c0.99873 0 1.8025 1.0011 1.8025 2.2448v5.2772" opacity=".25" stop-color="#000000" style="-inkscape-stroke:none;font-variation-settings:normal"/>
  <path d="m184.56 203.16v12.197c0 1.2437 0.80425 2.2448 1.803 2.2448h0.10903c0.99874 0 1.8025-1.0011 1.8025-2.2448v-12.197" opacity=".25" stop-color="#000000" style="-inkscape-stroke:none;font-variation-settings:normal"/>
  <path d="m178.61 202.98v3.9341c0 1.2437-0.80374 2.2448-1.8025 2.2448h-0.10904c-0.99873 0-1.803-1.0011-1.803-2.2448v-3.9341" opacity=".25" stop-color="#000000" style="-inkscape-stroke:none;font-variation-settings:normal"/>
 </g>
 <g transform="translate(17.576 38.69)" fill="#377eb8" fill-opacity=".53333" stroke="#000" stroke-linejoin="bevel" stroke-width=".60299">
  <path d="m171.18 193.37-4.8239 4.8239"/>
  <path d="m171.18 183.72-14.647 14.647"/>
  <path d="m171.18 174.07-24.207 24.207"/>
  <path d="m171.18 164.43-33.855 33.855"/>
  <path d="m161.54 164.43-24.207 24.207"/>
  <path d="m151.98 164.34-14.647 14.647"/>
  <path d="m142.24 164.43-4.8239 4.8239"/>
  <path d="m171.18 178.99-14.647-14.647"/>
  <path d="m171.18 169.34-4.8239-4.8239"/>
  <path d="m171.18 188.63-24.207-24.207"/>
  <path d="m171.18 198.28-33.855-33.855"/>
  <path d="m161.54 198.28-24.207-24.207"/>
  <path d="m151.98 198.37-14.647-14.647"/>
  <path d="m142.24 198.28-4.8239-4.8239"/>
 </g>
 <g fill="#808080" stroke="#000" stroke-linecap="square" stroke-linejoin="round" stroke-width="1.0583">
  <rect transform="rotate(90)" x="203.4" y="-168.93" width="33.574" height="3.7146" rx="3.1534" ry="1.8028" opacity=".25" stop-color="#000000" style="-inkscape-stroke:none;font-variation-settings:normal"/>
  <path d="m173.77 236.98v-25.862c0-1.747-0.80374-3.1533-1.8025-3.1533h-0.10903c-0.99874 0-1.803 1.4063-1.803 3.1533v25.862" opacity=".25" stop-color="#000000" style="-inkscape-stroke:none;font-variation-settings:normal"/>
  <path d="m178.61 236.98v-20.888c0-1.747-0.80426-3.1533-1.803-3.1533h-0.10903c-0.99873 0-1.803 1.4063-1.803 3.1533v20.888" opacity=".25" stop-color="#000000" style="-inkscape-stroke:none;font-variation-settings:normal"/>
  <path d="m160.38 203.13v25.862c0 1.747 0.80374 3.1533 1.8025 3.1533h0.10904c0.99873 0 1.803-1.4063 1.803-3.1533v-25.862" opacity=".25" stop-color="#000000" style="-inkscape-stroke:none;font-variation-settings:normal"/>
  <path d="m155.55 203.13v20.888c0 1.747 0.80426 3.1533 1.803 3.1533h0.10904c0.99873 0 1.803-1.4063 1.803-3.1533v-20.888" opacity=".25" stop-color="#000000" style="-inkscape-stroke:none;font-variation-settings:normal"/>
  <path d="m181.53 217.63c-0.99873 0-1.8025 1.4063-1.8025 3.1533v16.191h3.7145v-16.191c0-1.747-0.80426-3.1533-1.803-3.1533z" opacity=".25" stop-color="#000000" style="-inkscape-stroke:none;font-variation-settings:normal"/>
  <path d="m186.37 222.61c-0.99873 0-1.803 1.4063-1.803 3.1533v11.216h3.7145v-11.216c0-1.747-0.80426-3.1533-1.803-3.1533z" opacity=".25" stop-color="#000000" style="-inkscape-stroke:none;font-variation-settings:normal"/>
  <rect transform="rotate(135)" x="-16.127" y="-307" width="26.284" height="5.0866" rx="2.6766" ry="1.8927" opacity=".25" stop-color="#000000" style="-inkscape-stroke:none;font-variation-settings:normal"/>
  <rect transform="rotate(135)" x="-9.8246" y="-313.84" width="26.284" height="5.0866" rx="2.6766" ry="1.8927" opacity=".25" stop-color="#000000" style="-inkscape-stroke:none;font-variation-settings:normal"/>
  <path d="m237.12 209.2-9.1984 9.1984c-1.0485 1.0485-1.2959 2.4899-0.55449 3.2313l0.91984 0.91984c0.74144 0.74145 2.1828 0.49455 3.2313-0.55397l5.6017-5.6017" opacity=".25" stop-color="#000000" style="-inkscape-stroke:none;font-variation-settings:normal"/>
  <path d="m236.74 219.25-9.1984 9.1984c-1.0485 1.0485-1.2959 2.4899-0.55449 3.2313l0.91984 0.91984c0.74144 0.74144 2.1828 0.49454 3.2313-0.55398l5.6017-5.6017" opacity=".25" stop-color="#000000" style="-inkscape-stroke:none;font-variation-settings:normal"/>
 </g>
 <g transform="translate(65.936 38.69)" fill="#377eb8" fill-opacity=".53333" stroke="#000" stroke-linejoin="bevel" stroke-width=".60299">
  <path d="m171.18 193.37-4.8239 4.8239"/>
  <path d="m171.18 183.72-14.647 14.647"/>
  <path d="m171.18 174.07-24.207 24.207"/>
  <path d="m171.18 164.43-33.855 33.855"/>
  <path d="m161.54 164.43-24.207 24.207"/>
  <path d="m151.98 164.34-14.647 14.647"/>
  <path d="m142.24 164.43-4.8239 4.8239"/>
  <path d="m171.18 178.99-14.647-14.647"/>
  <path d="m171.18 169.34-4.8239-4.8239"/>
  <path d="m171.18 188.63-24.207-24.207"/>
  <path d="m171.18 198.28-33.855-33.855"/>
  <path d="m161.54 198.28-24.207-24.207"/>
  <path d="m151.98 198.37-14.647-14.647"/>
  <path d="m142.24 198.28-4.8239-4.8239"/>
 </g>
 <g fill="#808080" stroke="#000" stroke-linecap="square" stroke-linejoin="round" stroke-width="1.0583">
  <path d="m216.53 236.97 10.438-10.438c1.0485-1.0485 1.2959-2.4894 0.5545-3.2308l-0.92037-0.92037c-0.27803-0.27803-0.65456-0.41698-1.0718-0.42685-0.69534-0.0164-1.5037 0.32602-2.159 0.98135l-14.035 14.035" opacity=".25" stop-color="#000000" style="-inkscape-stroke:none;font-variation-settings:normal"/>
  <path d="m214.09 203.2-5.8958 5.8963c-1.0485 1.0485-1.2959 2.4894-0.55448 3.2308l0.92035 0.92035c0.27804 0.27804 0.65457 0.41698 1.0718 0.42685 0.69534 0.0164 1.5037-0.326 2.159-0.98133l9.493-9.493" opacity=".25" stop-color="#000000" style="-inkscape-stroke:none;font-variation-settings:normal"/>
  <path d="m226.82 236.97 2e-3 -2e-3c1.0485-1.0485 1.2959-2.4899 0.55449-3.2313l-0.91984-0.91984c-0.27804-0.27804-0.6545-0.41745-1.0718-0.42736-0.69545-0.0165-1.5042 0.32601-2.1596 0.98133l-3.5993 3.5993" opacity=".25" stop-color="#000000" style="-inkscape-stroke:none;font-variation-settings:normal"/>
  <path d="m203.52 223.45 2e-3 -2e-3c1.0485-1.0485 2.4899-1.2959 3.2313-0.55449l0.91984 0.91984c0.27804 0.27805 0.41745 0.6545 0.42736 1.0718 0.0165 0.69545-0.32601 1.5042-0.98133 2.1596l-3.5993 3.5993" opacity=".25" stop-color="#000000" style="-inkscape-stroke:none;font-variation-settings:normal"/>
  <path d="m203.52 213.77 2e-3 -2e-3c1.0485-1.0485 2.4899-1.2959 3.2313-0.55449l0.91984 0.91984c0.27804 0.27805 0.41745 0.6545 0.42736 1.0718 0.0165 0.69545-0.32601 1.5042-0.98133 2.1596l-3.5993 3.5993" opacity=".25" stop-color="#000000" style="-inkscape-stroke:none;font-variation-settings:normal"/>
 </g>
 <g transform="translate(-15.437 -150.95)">
  <a transform="matrix(2 0 0 2 -14.482 -147.56)" xlink:href="https://d-bl.github.io/GroundForge/pattern.html?patchWidth=6&amp;patchHeight=6&amp;footside=----,---b,&amp;tile=1,8&amp;headside=c,-,&amp;shiftColsSW=0&amp;shiftRowsSW=2&amp;shiftColsSE=1&amp;shiftRowsSE=2&amp;k1=ctctt&amp;e1=ct&amp;e2=ctct&amp;d2=ctctt">
   <text x="24.575508" y="153.90761" fill="#000000" fill-opacity=".99854" font-size="2.1167px" stroke-linecap="square" stroke-width=".565" xml:space="preserve"><tspan x="24.575508" y="153.90761" fill="#000000" stroke-width=".565">b</tspan></text>
  </a>
 </g>
 <g transform="translate(-15.586 -55.939)" fill="#f00">
  <a transform="matrix(2 0 0 2 -14.482 -147.56)" fill="#f00" xlink:href="https://d-bl.github.io/GroundForge/pattern.html">
   <text x="24.575508" y="153.90761" fill="#ff0000" fill-opacity=".99854" font-size="2.1167px" stroke-linecap="square" stroke-width=".565" xml:space="preserve"><tspan x="24.575508" y="153.90761" fill="#ff0000" stroke-width=".565">V</tspan></text>
  </a>
 </g>
 <g transform="translate(-5.0522 -55.939)" fill="#f00">
  <a transform="matrix(2 0 0 2 -14.482 -147.56)" fill="#f00" xlink:href="https://d-bl.github.io/GroundForge/pattern.html">
   <text x="24.575508" y="153.90761" fill="#ff0000" fill-opacity=".99854" font-size="2.1167px" stroke-linecap="square" stroke-width=".565" xml:space="preserve"><tspan x="24.575508" y="153.90761" fill="#ff0000" stroke-width=".565">H</tspan></text>
  </a>
 </g>
 <text x="75.110428" y="103.97899" fill="#000000" font-family="Calibri" font-size="4px" stop-color="#000000" stroke-width=".26458" style="-inkscape-stroke:none;line-height:1.204;text-decoration-color:#000000" xml:space="preserve"><tspan x="75.110428" y="103.97899" stroke-width=".26458">2 links</tspan></text>
 <g fill="#f00">
  <g transform="translate(-15.295 -7.7226)">
   <a transform="matrix(2 0 0 2 -14.482 -147.56)" fill="#f00" xlink:href="https://d-bl.github.io/GroundForge/pattern.html">
    <text x="24.575508" y="153.90761" fill="#ff0000" fill-opacity=".99854" font-size="2.1167px" stroke-linecap="square" stroke-width=".565" xml:space="preserve"><tspan x="24.575508" y="153.90761" fill="#ff0000" stroke-width=".565">V</tspan></text>
   </a>
  </g>
  <g transform="translate(30.634 -7.8576)">
   <a transform="matrix(2 0 0 2 -14.482 -147.56)" fill="#f00" xlink:href="https://d-bl.github.io/GroundForge/pattern.html">
    <text x="24.575508" y="153.90761" fill="#ff0000" fill-opacity=".99854" font-size="2.1167px" stroke-linecap="square" stroke-width=".565" xml:space="preserve"><tspan x="24.575508" y="153.90761" fill="#ff0000" stroke-width=".565">b</tspan></text>
   </a>
  </g>
  <g transform="translate(30.641 40.781)">
   <a transform="matrix(2 0 0 2 -14.482 -147.56)" fill="#f00" xlink:href="https://d-bl.github.io/GroundForge/pattern.html">
    <text x="24.575508" y="153.90761" fill="#ff0000" fill-opacity=".99854" font-size="2.1167px" stroke-linecap="square" stroke-width=".565" xml:space="preserve"><tspan x="24.575508" y="153.90761" fill="#ff0000" stroke-width=".565">b</tspan></text>
   </a>
  </g>
  <g transform="translate(175.83 40.637)">
   <a transform="matrix(2 0 0 2 -14.482 -147.56)" fill="#f00" xlink:href="https://d-bl.github.io/GroundForge/pattern.html">
    <text x="24.575508" y="153.90761" fill="#ff0000" fill-opacity=".99854" font-size="2.1167px" stroke-linecap="square" stroke-width=".565" xml:space="preserve"><tspan x="24.575508" y="153.90761" fill="#ff0000" stroke-width=".565">b</tspan></text>
   </a>
  </g>
  <g transform="translate(42.024 40.639)">
   <a transform="matrix(2 0 0 2 -14.482 -147.56)" fill="#f00" xlink:href="https://d-bl.github.io/GroundForge/pattern.html">
    <text x="24.575508" y="153.90761" fill="#ff0000" fill-opacity=".99854" font-size="2.1167px" stroke-linecap="square" stroke-width=".565" xml:space="preserve"><tspan x="24.575508" y="153.90761" fill="#ff0000" stroke-width=".565">d</tspan></text>
   </a>
  </g>
 </g>
 <text x="127.29967" y="201.27708" fill="#ff0000" fill-opacity=".99854" font-size="4.2333px" stroke-linecap="square" stroke-width="1.13" xml:space="preserve"><tspan x="127.29967" y="201.27708" fill="#ff0000" stroke-width="1.13">d</tspan></text>
 <g transform="translate(137.22 40.786)" fill="#f00">
  <a transform="matrix(2 0 0 2 -14.482 -147.56)" fill="#f00" xlink:href="https://d-bl.github.io/GroundForge/pattern.html">
   <text x="24.575508" y="153.90761" fill="#ff0000" fill-opacity=".99854" font-size="2.1167px" stroke-linecap="square" stroke-width=".565" xml:space="preserve"><tspan x="24.575508" y="153.90761" fill="#ff0000" stroke-width=".565">H</tspan></text>
  </a>
 </g>
 <g transform="translate(127.14 40.786)" fill="#f00">
  <a transform="matrix(2 0 0 2 -14.482 -147.56)" fill="#f00" xlink:href="https://d-bl.github.io/GroundForge/pattern.html">
   <text x="24.575508" y="153.90761" fill="#ff0000" fill-opacity=".99854" font-size="2.1167px" stroke-linecap="square" stroke-width=".565" xml:space="preserve"><tspan x="24.575508" y="153.90761" fill="#ff0000" stroke-width=".565">V</tspan></text>
  </a>
 </g>
</svg>
